<?xml version="1.0" encoding="UTF-8"?>
<svg version="1.1" xmlns="http://www.w3.org/2000/svg" width="16" height="16">
<path d="M0 0 C5.28 0 10.56 0 16 0 C16 5.28 16 10.56 16 16 C10.72 16 5.44 16 0 16 C0 10.72 0 5.44 0 0 Z " fill="#5184FF" transform="translate(0,0)"/>
<path d="M0 0 C0.33 0 0.66 0 1 0 C1 5.28 1 10.56 1 16 C-2.63 16 -6.26 16 -10 16 C-8.60683123 13.21366246 -6.84019484 13.06507306 -4 12 C-2.3589118 10.3589118 -2.40731882 8.24025352 -2 6 C-1.11111111 1.11111111 -1.11111111 1.11111111 0 0 Z " fill="#4252FF" transform="translate(15,0)"/>
<path d="M0 0 C0.99 0.33 1.98 0.66 3 1 C3 3.31 3 5.62 3 8 C3.99 8 4.98 8 6 8 C6 5.69 6 3.38 6 1 C6.66 1 7.32 1 8 1 C8.1953125 7.0546875 8.1953125 7.0546875 8 9 C7.34 9.66 6.68 10.32 6 11 C1.44444444 10.44444444 1.44444444 10.44444444 0 9 C-0.07179964 7.48071962 -0.08392007 5.95832518 -0.0625 4.4375 C-0.05347656 3.61121094 -0.04445312 2.78492188 -0.03515625 1.93359375 C-0.02355469 1.29550781 -0.01195312 0.65742187 0 0 Z " fill="#C9D6FF" transform="translate(4,3)"/>
<path d="M0 0 C0.33 0 0.66 0 1 0 C1 1.98 1 3.96 1 6 C-2.63 6 -6.26 6 -10 6 C-9.67 5.34 -9.34 4.68 -9 4 C-6.66989091 3.32215008 -4.33640176 2.65583207 -2 2 C-1.34 1.34 -0.68 0.68 0 0 Z " fill="#3A34FF" transform="translate(15,10)"/>
<path d="M0 0 C1.32 0.66 2.64 1.32 4 2 C3.67 2.99 3.34 3.98 3 5 C1.35 5 -0.3 5 -2 5 C-1.125 1.125 -1.125 1.125 0 0 Z " fill="#4165FF" transform="translate(2,11)"/>
<path d="M0 0 C0.66 0 1.32 0 2 0 C2 2.64 2 5.28 2 8 C0.68 8.33 -0.64 8.66 -2 9 C-1.34 6.03 -0.68 3.06 0 0 Z " fill="#FAFBFF" transform="translate(10,4)"/>
</svg>
